<mxfile host="65bd71144e">
    <diagram name="第 1 页" id="8bNZz8L6aynV-GFqRyhN">
        <mxGraphModel dx="1172" dy="1961" grid="1" gridSize="10" guides="1" tooltips="1" connect="1" arrows="1" fold="1" page="1" pageScale="1" pageWidth="827" pageHeight="1169" math="0" shadow="0">
            <root>
                <mxCell id="0"/>
                <mxCell id="1" parent="0"/>
                <mxCell id="PkBwrlHCXsC8GzPORymp-33" style="edgeStyle=orthogonalEdgeStyle;rounded=0;orthogonalLoop=1;jettySize=auto;html=1;exitX=1;exitY=0.25;exitDx=0;exitDy=0;entryX=0;entryY=0.25;entryDx=0;entryDy=0;dashed=1;" parent="1" source="PkBwrlHCXsC8GzPORymp-1" target="PkBwrlHCXsC8GzPORymp-9" edge="1">
                    <mxGeometry relative="1" as="geometry"/>
                </mxCell>
                <mxCell id="PkBwrlHCXsC8GzPORymp-1" value="进程1" style="rounded=0;whiteSpace=wrap;html=1;fillColor=#f8cecc;strokeColor=#b85450;" parent="1" vertex="1">
                    <mxGeometry x="80" y="-900" width="120" height="60" as="geometry"/>
                </mxCell>
                <mxCell id="PkBwrlHCXsC8GzPORymp-8" style="edgeStyle=orthogonalEdgeStyle;rounded=0;orthogonalLoop=1;jettySize=auto;html=1;exitX=0.5;exitY=1;exitDx=0;exitDy=0;entryX=0.5;entryY=0;entryDx=0;entryDy=0;" parent="1" source="PkBwrlHCXsC8GzPORymp-3" target="PkBwrlHCXsC8GzPORymp-1" edge="1">
                    <mxGeometry relative="1" as="geometry"/>
                </mxCell>
                <mxCell id="PkBwrlHCXsC8GzPORymp-3" value="程序&lt;br&gt;【数据+指令】" style="rounded=0;whiteSpace=wrap;html=1;" parent="1" vertex="1">
                    <mxGeometry x="80" y="-1000" width="120" height="60" as="geometry"/>
                </mxCell>
                <mxCell id="PkBwrlHCXsC8GzPORymp-11" style="edgeStyle=orthogonalEdgeStyle;rounded=0;orthogonalLoop=1;jettySize=auto;html=1;exitX=0.5;exitY=1;exitDx=0;exitDy=0;entryX=0.5;entryY=0;entryDx=0;entryDy=0;" parent="1" source="PkBwrlHCXsC8GzPORymp-4" target="PkBwrlHCXsC8GzPORymp-3" edge="1">
                    <mxGeometry relative="1" as="geometry"/>
                </mxCell>
                <mxCell id="PkBwrlHCXsC8GzPORymp-4" value="代码&lt;br&gt;【数据结构+算法】" style="rounded=0;whiteSpace=wrap;html=1;" parent="1" vertex="1">
                    <mxGeometry x="80" y="-1120" width="120" height="60" as="geometry"/>
                </mxCell>
                <mxCell id="PkBwrlHCXsC8GzPORymp-6" value="编译、解析" style="text;html=1;strokeColor=none;fillColor=none;align=center;verticalAlign=middle;whiteSpace=wrap;rounded=0;" parent="1" vertex="1">
                    <mxGeometry x="130" y="-1040" width="90" height="30" as="geometry"/>
                </mxCell>
                <mxCell id="PkBwrlHCXsC8GzPORymp-10" style="edgeStyle=orthogonalEdgeStyle;rounded=0;orthogonalLoop=1;jettySize=auto;html=1;entryX=1;entryY=0.5;entryDx=0;entryDy=0;" parent="1" source="PkBwrlHCXsC8GzPORymp-9" target="PkBwrlHCXsC8GzPORymp-1" edge="1">
                    <mxGeometry relative="1" as="geometry"/>
                </mxCell>
                <mxCell id="PkBwrlHCXsC8GzPORymp-25" value="" style="edgeStyle=orthogonalEdgeStyle;rounded=0;orthogonalLoop=1;jettySize=auto;html=1;" parent="1" source="PkBwrlHCXsC8GzPORymp-9" target="PkBwrlHCXsC8GzPORymp-20" edge="1">
                    <mxGeometry relative="1" as="geometry"/>
                </mxCell>
                <mxCell id="PkBwrlHCXsC8GzPORymp-30" style="edgeStyle=orthogonalEdgeStyle;rounded=0;orthogonalLoop=1;jettySize=auto;html=1;exitX=0.5;exitY=1;exitDx=0;exitDy=0;entryX=0.5;entryY=0;entryDx=0;entryDy=0;" parent="1" source="PkBwrlHCXsC8GzPORymp-9" target="PkBwrlHCXsC8GzPORymp-13" edge="1">
                    <mxGeometry relative="1" as="geometry"/>
                </mxCell>
                <mxCell id="PkBwrlHCXsC8GzPORymp-32" style="edgeStyle=orthogonalEdgeStyle;rounded=0;orthogonalLoop=1;jettySize=auto;html=1;exitX=1;exitY=0.5;exitDx=0;exitDy=0;" parent="1" source="PkBwrlHCXsC8GzPORymp-9" target="PkBwrlHCXsC8GzPORymp-31" edge="1">
                    <mxGeometry relative="1" as="geometry"/>
                </mxCell>
                <mxCell id="PkBwrlHCXsC8GzPORymp-48" style="edgeStyle=orthogonalEdgeStyle;rounded=0;orthogonalLoop=1;jettySize=auto;html=1;exitX=0;exitY=0.5;exitDx=0;exitDy=0;entryX=1;entryY=0.5;entryDx=0;entryDy=0;" parent="1" source="PkBwrlHCXsC8GzPORymp-9" target="PkBwrlHCXsC8GzPORymp-39" edge="1">
                    <mxGeometry relative="1" as="geometry"/>
                </mxCell>
                <mxCell id="PkBwrlHCXsC8GzPORymp-58" style="edgeStyle=orthogonalEdgeStyle;rounded=0;orthogonalLoop=1;jettySize=auto;html=1;exitX=1;exitY=0.75;exitDx=0;exitDy=0;entryX=0;entryY=0.25;entryDx=0;entryDy=0;" parent="1" source="PkBwrlHCXsC8GzPORymp-9" target="PkBwrlHCXsC8GzPORymp-35" edge="1">
                    <mxGeometry relative="1" as="geometry"/>
                </mxCell>
                <mxCell id="PkBwrlHCXsC8GzPORymp-9" value="操作系统&lt;br&gt;【用户态、内核态】" style="rounded=0;whiteSpace=wrap;html=1;" parent="1" vertex="1">
                    <mxGeometry x="290" y="-900" width="120" height="60" as="geometry"/>
                </mxCell>
                <mxCell id="PkBwrlHCXsC8GzPORymp-12" value="调度" style="text;html=1;strokeColor=none;fillColor=none;align=center;verticalAlign=middle;whiteSpace=wrap;rounded=0;" parent="1" vertex="1">
                    <mxGeometry x="240" y="-850" width="60" height="30" as="geometry"/>
                </mxCell>
                <mxCell id="PkBwrlHCXsC8GzPORymp-13" value="内存" style="rounded=0;whiteSpace=wrap;html=1;fillColor=#f8cecc;strokeColor=#b85450;" parent="1" vertex="1">
                    <mxGeometry x="290" y="-790" width="120" height="60" as="geometry"/>
                </mxCell>
                <mxCell id="PkBwrlHCXsC8GzPORymp-19" value="分配" style="text;html=1;strokeColor=none;fillColor=none;align=center;verticalAlign=middle;whiteSpace=wrap;rounded=0;" parent="1" vertex="1">
                    <mxGeometry x="354" y="-830" width="60" height="30" as="geometry"/>
                </mxCell>
                <mxCell id="PkBwrlHCXsC8GzPORymp-20" value="文件" style="rounded=0;whiteSpace=wrap;html=1;fillColor=#f8cecc;strokeColor=#b85450;" parent="1" vertex="1">
                    <mxGeometry x="290" y="-1000" width="120" height="60" as="geometry"/>
                </mxCell>
                <mxCell id="PkBwrlHCXsC8GzPORymp-26" value="管理" style="text;html=1;strokeColor=none;fillColor=none;align=center;verticalAlign=middle;whiteSpace=wrap;rounded=0;" parent="1" vertex="1">
                    <mxGeometry x="354" y="-930" width="60" height="30" as="geometry"/>
                </mxCell>
                <mxCell id="PkBwrlHCXsC8GzPORymp-31" value="设备&lt;br&gt;【键盘、显示器、磁盘】" style="rounded=0;whiteSpace=wrap;html=1;" parent="1" vertex="1">
                    <mxGeometry x="480" y="-900" width="120" height="60" as="geometry"/>
                </mxCell>
                <mxCell id="PkBwrlHCXsC8GzPORymp-34" value="访问" style="text;html=1;strokeColor=none;fillColor=none;align=center;verticalAlign=middle;whiteSpace=wrap;rounded=0;" parent="1" vertex="1">
                    <mxGeometry x="210" y="-920" width="60" height="30" as="geometry"/>
                </mxCell>
                <mxCell id="PkBwrlHCXsC8GzPORymp-35" value="网络&lt;br&gt;【网卡是一种&lt;br&gt;设备】" style="rounded=0;whiteSpace=wrap;html=1;" parent="1" vertex="1">
                    <mxGeometry x="480" y="-790" width="120" height="60" as="geometry"/>
                </mxCell>
                <mxCell id="PkBwrlHCXsC8GzPORymp-39" value="进程2" style="rounded=0;whiteSpace=wrap;html=1;" parent="1" vertex="1">
                    <mxGeometry x="80" y="-790" width="120" height="60" as="geometry"/>
                </mxCell>
                <mxCell id="PkBwrlHCXsC8GzPORymp-43" value="通信" style="text;html=1;strokeColor=none;fillColor=none;align=center;verticalAlign=middle;whiteSpace=wrap;rounded=0;" parent="1" vertex="1">
                    <mxGeometry x="140" y="-830" width="60" height="30" as="geometry"/>
                </mxCell>
                <mxCell id="PkBwrlHCXsC8GzPORymp-46" value="" style="endArrow=classic;startArrow=classic;html=1;rounded=0;entryX=0.5;entryY=1;entryDx=0;entryDy=0;exitX=0.5;exitY=0;exitDx=0;exitDy=0;" parent="1" source="PkBwrlHCXsC8GzPORymp-39" target="PkBwrlHCXsC8GzPORymp-1" edge="1">
                    <mxGeometry width="50" height="50" relative="1" as="geometry">
                        <mxPoint x="390" y="-850" as="sourcePoint"/>
                        <mxPoint x="440" y="-900" as="targetPoint"/>
                    </mxGeometry>
                </mxCell>
                <mxCell id="PkBwrlHCXsC8GzPORymp-54" style="edgeStyle=orthogonalEdgeStyle;rounded=0;orthogonalLoop=1;jettySize=auto;html=1;exitX=0.5;exitY=0;exitDx=0;exitDy=0;entryX=0;entryY=0.5;entryDx=0;entryDy=0;" parent="1" source="PkBwrlHCXsC8GzPORymp-52" target="PkBwrlHCXsC8GzPORymp-53" edge="1">
                    <mxGeometry relative="1" as="geometry"/>
                </mxCell>
                <mxCell id="PkBwrlHCXsC8GzPORymp-52" value="操作系统2&lt;br&gt;【内存、进程、文件、磁盘】" style="rounded=0;whiteSpace=wrap;html=1;" parent="1" vertex="1">
                    <mxGeometry x="290" y="-540" width="120" height="60" as="geometry"/>
                </mxCell>
                <mxCell id="PkBwrlHCXsC8GzPORymp-59" style="edgeStyle=orthogonalEdgeStyle;rounded=0;orthogonalLoop=1;jettySize=auto;html=1;exitX=0.5;exitY=0;exitDx=0;exitDy=0;entryX=0.5;entryY=1;entryDx=0;entryDy=0;dashed=1;" parent="1" source="PkBwrlHCXsC8GzPORymp-53" target="PkBwrlHCXsC8GzPORymp-35" edge="1">
                    <mxGeometry relative="1" as="geometry"/>
                </mxCell>
                <mxCell id="PkBwrlHCXsC8GzPORymp-53" value="网络&lt;br&gt;" style="rounded=0;whiteSpace=wrap;html=1;" parent="1" vertex="1">
                    <mxGeometry x="480" y="-600" width="120" height="60" as="geometry"/>
                </mxCell>
                <mxCell id="PkBwrlHCXsC8GzPORymp-57" value="&lt;h1&gt;网络协议&lt;/h1&gt;&lt;div&gt;socket——tcp\ip\udp&lt;br&gt;&lt;/div&gt;&lt;div&gt;应用层——http\rpc&lt;/div&gt;" style="text;html=1;spacing=5;spacingTop=-20;whiteSpace=wrap;overflow=hidden;rounded=0;" parent="1" vertex="1">
                    <mxGeometry x="570" y="-710" width="190" height="100" as="geometry"/>
                </mxCell>
                <mxCell id="PkBwrlHCXsC8GzPORymp-60" value="访问上面系统的进程1" style="text;html=1;strokeColor=none;fillColor=none;align=center;verticalAlign=middle;whiteSpace=wrap;rounded=0;" parent="1" vertex="1">
                    <mxGeometry x="374" y="-610" width="80" height="40" as="geometry"/>
                </mxCell>
            </root>
        </mxGraphModel>
    </diagram>
</mxfile>